<svg width="526" height="285" viewBox="0 0 526 285" fill="none" xmlns="http://www.w3.org/2000/svg">
<mask id="path-1-inside-1_956_1759" fill="white">
<path fill-rule="evenodd" clip-rule="evenodd" d="M48 0C21.4903 0 0 21.4903 0 48V237C0 263.51 21.4903 285 48 285H143.399L131.444 236.5C122.349 236.5 115 229.042 115 219.812C115 210.582 122.349 203.124 131.444 203.124H175.199L133.265 121.303C130.131 115.15 132.443 107.588 138.507 104.407C144.571 101.226 152.022 103.625 155.157 109.726L203 203.124H322.765L370.608 109.726C373.743 103.625 381.246 101.226 387.259 104.407C393.271 107.588 395.635 115.15 392.5 121.303L350.567 203.124H394.556C403.651 203.124 411 210.582 411 219.812C411 229.042 403.651 236.5 394.556 236.5L382.601 285H478C504.51 285 526 263.51 526 237V48C526 21.4903 504.51 0 478 0H48ZM328.778 285V261.531C328.778 256.942 325.078 253.187 320.556 253.187C316.033 253.187 312.333 256.942 312.333 261.531V285H328.778ZM271.222 285V261.531C271.222 256.942 267.522 253.187 263 253.187C258.478 253.187 254.778 256.942 254.778 261.531V285H271.222ZM213.667 285V261.531C213.667 256.942 209.967 253.187 205.444 253.187C200.922 253.187 197.222 256.942 197.222 261.531V285H213.667Z"/>
</mask>
<path fill-rule="evenodd" clip-rule="evenodd" d="M48 0C21.4903 0 0 21.4903 0 48V237C0 263.51 21.4903 285 48 285H143.399L131.444 236.5C122.349 236.5 115 229.042 115 219.812C115 210.582 122.349 203.124 131.444 203.124H175.199L133.265 121.303C130.131 115.15 132.443 107.588 138.507 104.407C144.571 101.226 152.022 103.625 155.157 109.726L203 203.124H322.765L370.608 109.726C373.743 103.625 381.246 101.226 387.259 104.407C393.271 107.588 395.635 115.15 392.5 121.303L350.567 203.124H394.556C403.651 203.124 411 210.582 411 219.812C411 229.042 403.651 236.5 394.556 236.5L382.601 285H478C504.51 285 526 263.51 526 237V48C526 21.4903 504.51 0 478 0H48ZM328.778 285V261.531C328.778 256.942 325.078 253.187 320.556 253.187C316.033 253.187 312.333 256.942 312.333 261.531V285H328.778ZM271.222 285V261.531C271.222 256.942 267.522 253.187 263 253.187C258.478 253.187 254.778 256.942 254.778 261.531V285H271.222ZM213.667 285V261.531C213.667 256.942 209.967 253.187 205.444 253.187C200.922 253.187 197.222 256.942 197.222 261.531V285H213.667Z" fill="white"/>
<path d="M143.399 285V286H144.675L144.37 284.761L143.399 285ZM131.444 236.5L132.415 236.26L132.228 235.5H131.444V236.5ZM175.199 203.124V204.124H176.835L176.089 202.668L175.199 203.124ZM133.265 121.303L132.374 121.757L132.375 121.759L133.265 121.303ZM155.157 109.726L156.047 109.27L156.046 109.269L155.157 109.726ZM203 203.124L202.11 203.58L202.389 204.124H203V203.124ZM322.765 203.124V204.124H323.377L323.655 203.58L322.765 203.124ZM370.608 109.726L369.719 109.269L369.718 109.27L370.608 109.726ZM392.5 121.303L393.39 121.759L393.391 121.757L392.5 121.303ZM350.567 203.124L349.677 202.668L348.93 204.124H350.567V203.124ZM394.556 236.5V235.5H393.772L393.585 236.26L394.556 236.5ZM382.601 285L381.63 284.761L381.325 286H382.601V285ZM328.778 285V286H329.778V285H328.778ZM312.333 285H311.333V286H312.333V285ZM271.222 285V286H272.222V285H271.222ZM254.778 285H253.778V286H254.778V285ZM213.667 285V286H214.667V285H213.667ZM197.222 285H196.222V286H197.222V285ZM1 48C1 22.0426 22.0426 1 48 1V-1C20.938 -1 -1 20.938 -1 48H1ZM1 237V48H-1V237H1ZM48 284C22.0426 284 1 262.957 1 237H-1C-1 264.062 20.9381 286 48 286V284ZM143.399 284H48V286H143.399V284ZM130.474 236.739L142.428 285.239L144.37 284.761L132.415 236.26L130.474 236.739ZM114 219.812C114 229.581 121.783 237.5 131.444 237.5V235.5C122.915 235.5 116 228.504 116 219.812H114ZM131.444 202.124C121.783 202.124 114 210.043 114 219.812H116C116 211.12 122.915 204.124 131.444 204.124V202.124ZM175.199 202.124H131.444V204.124H175.199V202.124ZM132.375 121.759L174.309 203.581L176.089 202.668L134.155 120.847L132.375 121.759ZM138.042 103.522C131.479 106.965 128.998 115.13 132.374 121.757L134.156 120.849C131.263 115.169 133.407 108.212 138.971 105.293L138.042 103.522ZM156.046 109.269C152.661 102.679 144.604 100.079 138.042 103.522L138.971 105.293C144.538 102.373 151.384 104.57 154.267 110.183L156.046 109.269ZM203.89 202.669L156.047 109.27L154.267 110.182L202.11 203.58L203.89 202.669ZM322.765 202.124H203V204.124H322.765V202.124ZM369.718 109.27L321.875 202.669L323.655 203.58L371.498 110.182L369.718 109.27ZM387.726 103.523C381.214 100.078 373.104 102.68 369.719 109.269L371.498 110.183C374.382 104.57 381.278 102.374 386.791 105.291L387.726 103.523ZM393.391 121.757C396.77 115.125 394.23 106.964 387.726 103.523L386.791 105.291C392.312 108.212 394.5 115.174 391.609 120.849L393.391 121.757ZM351.457 203.581L393.39 121.759L391.61 120.847L349.677 202.668L351.457 203.581ZM394.556 202.124H350.567V204.124H394.556V202.124ZM412 219.812C412 210.043 404.217 202.124 394.556 202.124V204.124C403.085 204.124 410 211.12 410 219.812H412ZM394.556 237.5C404.217 237.5 412 229.581 412 219.812H410C410 228.504 403.085 235.5 394.556 235.5V237.5ZM383.572 285.239L395.527 236.739L393.585 236.26L381.63 284.761L383.572 285.239ZM478 284H382.601V286H478V284ZM525 237C525 262.957 503.957 284 478 284V286C505.062 286 527 264.062 527 237H525ZM525 48V237H527V48H525ZM478 1C503.957 1 525 22.0426 525 48H527C527 20.9381 505.062 -1 478 -1V1ZM48 1H478V-1H48V1ZM329.778 285V261.531H327.778V285H329.778ZM329.778 261.531C329.778 256.403 325.644 252.187 320.556 252.187V254.187C324.512 254.187 327.778 257.48 327.778 261.531H329.778ZM320.556 252.187C315.467 252.187 311.333 256.403 311.333 261.531H313.333C313.333 257.48 316.599 254.187 320.556 254.187V252.187ZM311.333 261.531V285H313.333V261.531H311.333ZM328.778 284H312.333V286H328.778V284ZM272.222 285V261.531H270.222V285H272.222ZM272.222 261.531C272.222 256.403 268.088 252.187 263 252.187V254.187C266.956 254.187 270.222 257.48 270.222 261.531H272.222ZM263 252.187C257.912 252.187 253.778 256.403 253.778 261.531H255.778C255.778 257.48 259.044 254.187 263 254.187V252.187ZM253.778 261.531V285H255.778V261.531H253.778ZM271.222 284H254.778V286H271.222V284ZM214.667 285V261.531H212.667V285H214.667ZM214.667 261.531C214.667 256.403 210.533 252.187 205.444 252.187V254.187C209.401 254.187 212.667 257.48 212.667 261.531H214.667ZM205.444 252.187C200.356 252.187 196.222 256.403 196.222 261.531H198.222C198.222 257.48 201.488 254.187 205.444 254.187V252.187ZM196.222 261.531V285H198.222V261.531H196.222ZM213.667 284H197.222V286H213.667V284Z" fill="#B4BCCB" mask="url(#path-1-inside-1_956_1759)"/>
<g clip-path="url(#clip0_956_1759)">
<path d="M282.113 153.898L236.102 107.888C232.252 113.267 230 119.867 230 127C230 145.219 244.781 160 263 160C270.133 160 276.733 157.748 282.113 153.898ZM289.898 146.113C293.748 140.733 296 134.133 296 127C296 108.781 281.219 94 263 94C255.867 94 249.267 96.2516 243.888 100.102L289.898 146.113ZM219 127C219 115.33 223.636 104.139 231.887 95.8873C240.139 87.6357 251.33 83 263 83C274.67 83 285.861 87.6357 294.113 95.8873C302.364 104.139 307 115.33 307 127C307 138.67 302.364 149.861 294.113 158.113C285.861 166.364 274.67 171 263 171C251.33 171 240.139 166.364 231.887 158.113C223.636 149.861 219 138.67 219 127Z" fill="#6723F5"/>
</g>
<defs>
<clipPath id="clip0_956_1759">
<rect width="88" height="88" fill="white" transform="translate(219 83)"/>
</clipPath>
</defs>
</svg>
